<?xml version="1.0" standalone="no"?>
<!DOCTYPE svg PUBLIC "-//W3C//DTD SVG 20010904//EN"
 "http://www.w3.org/TR/2001/REC-SVG-20010904/DTD/svg10.dtd">
<svg version="1.0" xmlns="http://www.w3.org/2000/svg"
 width="387.000000pt" height="387.000000pt" viewBox="0 0 387.000000 387.000000"
 preserveAspectRatio="xMidYMid meet">
<metadata>
Created by potrace 1.11, written by Peter Selinger 2001-2013
</metadata>
<g transform="translate(0.000000,387.000000) scale(0.100000,-0.100000)"
fill="#000000" stroke="none">
<path d="M230 1930 l0 -1030 205 0 205 0 0 293 0 292 116 123 116 123 52 -80
c28 -44 87 -137 131 -206 44 -69 103 -160 130 -203 28 -42 88 -137 134 -210
l85 -132 247 0 248 0 -38 58 c-21 31 -81 122 -133 202 -52 80 -156 237 -230
350 -74 113 -183 278 -241 367 -59 90 -107 165 -107 167 0 3 138 178 308 390
169 211 331 415 361 453 l54 68 -249 3 -249 3 -30 -34 c-16 -19 -56 -67 -87
-108 -135 -173 -456 -593 -493 -644 -79 -109 -108 -145 -116 -145 -5 0 -9 209
-9 465 l0 465 -205 0 -205 0 0 -1030z"/>
<path d="M2080 1930 l0 -1030 205 0 205 0 0 365 0 365 249 0 c173 0 274 4 332
15 287 50 469 191 550 425 18 54 22 88 23 195 1 152 -10 207 -66 323 -71 147
-208 261 -385 323 -120 42 -223 49 -680 49 l-433 0 0 -1030z m972 657 c103
-51 168 -154 176 -282 9 -137 -46 -247 -148 -297 -78 -39 -166 -49 -390 -46
l-195 3 -3 328 -2 328 252 -3 253 -3 57 -28z"/>
</g>
</svg>
